<svg width="356" height="228" viewBox="0 0 356 228" fill="none" xmlns="http://www.w3.org/2000/svg">
    <rect width="133" height="228" rx="4" fill="#959595" />
    <circle cx="67" cy="21" r="8" fill="white" />
    <rect x="222" width="133" height="228" rx="4" fill="#959595" />
    <circle cx="289" cy="21" r="8" fill="white" />
    <path
        d="M261.468 100.847C261.936 101.141 262.553 100.999 262.847 100.532C263.141 100.064 262.999 99.4467 262.532 99.1531L262 100L261.468 100.847ZM174.125 51.4349L173.715 52.3467L174.125 51.4349ZM76.7604 22.15C76.3019 22.458 76.1799 23.0793 76.4879 23.5377L81.5063 31.0087C81.8142 31.4672 82.4355 31.5892 82.894 31.2812C83.3524 30.9733 83.4744 30.352 83.1665 29.8935L78.7057 23.2527L85.3466 18.7919C85.805 18.4839 85.927 17.8626 85.6191 17.4042C85.3111 16.9457 84.6898 16.8237 84.2314 17.1316L76.7604 22.15ZM262 100C262.532 99.1531 262.531 99.1529 262.531 99.1526C262.531 99.1524 262.53 99.152 262.529 99.1515C262.528 99.1505 262.525 99.149 262.522 99.1471C262.516 99.1431 262.507 99.1373 262.494 99.1295C262.469 99.1141 262.433 99.091 262.384 99.0605C262.286 98.9995 262.141 98.9089 261.951 98.79C261.57 98.5523 261.006 98.2018 260.276 97.7498C258.815 96.8459 256.688 95.5363 254.019 93.9125C248.682 90.6652 241.178 86.1609 232.511 81.1328C215.184 71.0808 193.18 58.9185 174.536 50.5231L174.125 51.4349L173.715 52.3467C192.262 60.6988 214.195 72.8191 231.507 82.8628C240.16 87.8824 247.652 92.3793 252.98 95.6211C255.644 97.242 257.767 98.5489 259.223 99.4504C259.952 99.9012 260.513 100.251 260.893 100.487C261.082 100.605 261.226 100.696 261.323 100.756C261.371 100.786 261.408 100.809 261.432 100.824C261.444 100.832 261.453 100.838 261.459 100.841C261.462 100.843 261.465 100.845 261.466 100.846C261.467 100.846 261.467 100.846 261.468 100.847C261.468 100.847 261.468 100.847 262 100ZM174.125 51.4349L174.536 50.5231C155.859 42.1128 131.59 34.9821 112.024 29.9586C102.234 27.445 93.608 25.4556 87.4293 24.0945C84.3398 23.4139 81.8616 22.8903 80.1552 22.5367C79.3019 22.3599 78.6416 22.2256 78.1942 22.1354C77.9704 22.0903 77.8 22.0563 77.6852 22.0335C77.6278 22.022 77.5844 22.0134 77.5552 22.0077C77.5406 22.0048 77.5296 22.0026 77.5221 22.0011C77.5184 22.0004 77.5156 21.9999 77.5137 21.9995C77.5127 21.9993 77.512 21.9991 77.5115 21.999C77.511 21.9989 77.5107 21.9989 77.318 22.9801C77.1253 23.9614 77.1254 23.9614 77.1258 23.9615C77.1263 23.9616 77.1269 23.9617 77.1277 23.9619C77.1294 23.9622 77.1321 23.9627 77.1356 23.9634C77.1426 23.9648 77.1533 23.9669 77.1675 23.9697C77.1959 23.9753 77.2385 23.9838 77.2951 23.995C77.4082 24.0175 77.577 24.0513 77.799 24.096C78.243 24.1855 78.8998 24.3191 79.7494 24.4951C81.4485 24.8472 83.9184 25.369 86.999 26.0477C93.1606 27.405 101.763 29.3891 111.526 31.8958C131.067 36.9127 155.2 44.0094 173.715 52.3467L174.125 51.4349Z"
        fill="#00FF99" />
    <path
        d="M95.1127 99.8469C94.645 100.141 94.0277 99.9994 93.7341 99.5317C93.4404 99.0639 93.5816 98.4467 94.0493 98.1531L94.581 99L95.1127 99.8469ZM182.456 50.4349L182.866 51.3467L182.456 50.4349ZM279.821 21.15C280.279 21.458 280.401 22.0793 280.093 22.5377L275.075 30.0087C274.767 30.4672 274.146 30.5892 273.687 30.2812C273.229 29.9733 273.107 29.352 273.415 28.8935L277.875 22.2527L271.234 17.7919C270.776 17.4839 270.654 16.8626 270.962 16.4042C271.27 15.9457 271.891 15.8237 272.35 16.1316L279.821 21.15ZM94.581 99C94.0493 98.1531 94.0496 98.1529 94.05 98.1526C94.0504 98.1524 94.051 98.152 94.0518 98.1515C94.0534 98.1505 94.0558 98.149 94.0589 98.1471C94.0652 98.1431 94.0745 98.1373 94.0868 98.1295C94.1116 98.1141 94.1484 98.091 94.1971 98.0605C94.2946 97.9995 94.4396 97.9089 94.6302 97.79C95.0114 97.5523 95.575 97.2018 96.3052 96.7498C97.7657 95.8459 99.893 94.5363 102.562 92.9125C107.899 89.6652 115.403 85.1609 124.07 80.1328C141.397 70.0808 163.401 57.9185 182.045 49.5231L182.456 50.4349L182.866 51.3467C164.319 59.6988 142.386 71.8191 125.074 81.8628C116.421 86.8824 108.929 91.3793 103.601 94.6211C100.937 96.242 98.8143 97.5489 97.3578 98.4504C96.6295 98.9012 96.0678 99.2506 95.6884 99.4871C95.4987 99.6054 95.3546 99.6955 95.258 99.756C95.2097 99.7862 95.1733 99.809 95.149 99.8242C95.1368 99.8318 95.1277 99.8375 95.1216 99.8413C95.1186 99.8432 95.1164 99.8447 95.1149 99.8456C95.1141 99.8461 95.1136 99.8464 95.1132 99.8466C95.1129 99.8468 95.1127 99.8469 94.581 99ZM182.456 50.4349L182.045 49.5231C200.722 41.1128 224.991 33.9821 244.557 28.9586C254.347 26.445 262.973 24.4556 269.152 23.0945C272.241 22.4139 274.719 21.8903 276.426 21.5367C277.279 21.3599 277.939 21.2256 278.387 21.1354C278.611 21.0903 278.781 21.0563 278.896 21.0335C278.953 21.022 278.997 21.0134 279.026 21.0077C279.04 21.0048 279.051 21.0026 279.059 21.0011C279.063 21.0004 279.065 20.9999 279.067 20.9995C279.068 20.9993 279.069 20.9991 279.07 20.999C279.07 20.9989 279.07 20.9989 279.263 21.9801C279.456 22.9614 279.456 22.9614 279.455 22.9615C279.455 22.9616 279.454 22.9617 279.453 22.9619C279.452 22.9622 279.449 22.9627 279.445 22.9634C279.438 22.9648 279.428 22.9669 279.414 22.9697C279.385 22.9753 279.343 22.9838 279.286 22.995C279.173 23.0175 279.004 23.0513 278.782 23.096C278.338 23.1855 277.681 23.3191 276.832 23.4951C275.133 23.8472 272.663 24.369 269.582 25.0477C263.42 26.405 254.818 28.3891 245.055 30.8958C225.514 35.9127 201.381 43.0094 182.866 51.3467L182.456 50.4349Z"
        fill="#00FF99" />
    <rect x="37" y="84" width="60" height="60" rx="5" fill="white" />
    <rect x="259" y="84" width="60" height="60" rx="5" fill="white" />

</svg>
